<svg width="64" height="71" viewBox="0 0 64 71" fill="none" xmlns="http://www.w3.org/2000/svg">
<path d="M60.9449 39.5288C60.9449 48.072 55.3952 59.8785 48.685 66.3283C45.7092 69.1925 42.5039 70.9998 39.4525 70.9998C37.5239 70.9998 35.6003 70.6898 33.9455 70.1896C31.6809 69.5026 29.2638 69.5026 26.9993 70.1896C25.3446 70.6898 23.4211 70.9998 21.4924 70.9998C18.2957 70.9998 14.9278 69.0143 11.832 65.9085C5.31533 59.3765 0 47.8885 0 39.5287C0 27.1945 7.37067 19.7426 14.3014 17.9439C17.6213 17.0822 21.4735 17.6373 24.5846 18.4475C27.7906 19.2849 31.1381 19.4286 34.404 18.869C35.0616 18.7558 35.7142 18.6152 36.36 18.4475C39.4712 17.6373 43.3216 17.0822 46.6433 17.9439C53.5744 19.7427 60.9449 27.1947 60.9449 39.5288Z" fill="#F94848"/>
<path d="M48.6848 66.3276C40.4501 67.7842 34.1074 67.3806 29.3284 66.2222C21.5244 64.3306 15.7189 57.7416 14.7515 49.7624C12.3282 29.7784 25.372 23.9603 25.372 23.9603C29.1951 25.6991 33.4939 24.7706 33.4939 24.7706C30.7506 22.0262 34.4043 18.869 34.4043 18.869C31.1384 19.4286 27.7909 19.2849 24.5849 18.4475C21.4737 17.6373 17.6216 17.0822 14.3017 17.9439C7.37068 19.7427 0.000152588 27.1947 0.000152588 39.5288C0.000152588 51.8613 11.5668 70.9998 21.4924 70.9998C23.421 70.9998 25.3446 70.6898 26.9994 70.1896C29.264 69.5026 31.6811 69.5026 33.9456 70.1896C35.6005 70.6898 37.524 70.9998 39.4527 70.9998C42.5039 70.9998 45.7092 69.1925 48.6852 66.3283C48.6848 66.3278 48.6852 66.3283 48.6848 66.3276Z" fill="#E23D3D"/>
<path d="M63.9324 0.763422C63.9324 0.763422 62.221 12.7053 53.2077 16.1812C44.5912 19.5046 36.9108 10.5195 33.7604 11.227C33.6203 11.2555 33.486 11.3077 33.3634 11.3812C33.3583 11.3829 33.3566 11.3847 33.3566 11.3847L33.3583 11.3779C33.4644 11.0559 36.9195 0.753437 45.7927 0.0783833C54.8059 -0.607071 59.7106 3.50441 63.9324 0.763422Z" fill="#C7F492"/>
<path d="M63.9324 0.763422C63.9324 0.763422 58.4562 7.44449 50.7553 7.44449C43.9837 7.44449 35.6684 10.4904 33.7603 11.227C33.531 11.3144 33.3958 11.3692 33.3633 11.3812C33.3581 11.3829 33.3565 11.3847 33.3565 11.3847L33.3581 11.3779C33.4642 11.0559 36.9194 0.753437 45.7926 0.0783833C54.8059 -0.607071 59.7106 3.50441 63.9324 0.763422Z" fill="#A3E261"/>
<path d="M55.0322 33.9206C54.6958 30.5319 52.6474 27.9616 50.457 28.1795C48.2666 28.3974 46.7637 31.3211 47.1001 34.7098C47.4366 38.0984 49.485 40.6688 51.6754 40.4508C53.8658 40.2329 55.3687 37.3092 55.0322 33.9206Z" fill="#FC8181"/>
<path d="M36.8547 23.08C36.8547 24.4831 34.6539 25.6514 31.7328 25.9168C31.3255 25.9545 30.9045 25.9734 30.4733 25.9734C30.0232 25.9734 29.5852 25.9529 29.1624 25.9135C26.2685 25.6377 24.0935 24.4745 24.0935 23.08H36.8547Z" fill="#E23D3D"/>
<path d="M35.3419 11.234L30.6614 18.3501C31.0122 19.7925 31.3151 21.3822 31.512 23.0799C31.6234 24.0221 31.6971 24.9685 31.7328 25.9167C31.3255 25.9544 30.9045 25.9733 30.4733 25.9733C30.0232 25.9733 29.5852 25.9527 29.1624 25.9133C29.1247 24.9403 29.0409 23.9947 28.9262 23.0799C28.0877 16.4279 25.5241 11.5285 25.4933 11.4737C25.1613 10.8468 25.3993 10.069 26.0256 9.73673C26.6519 9.40267 27.4289 9.64077 27.7608 10.2678C27.8361 10.4118 28.779 12.2156 29.7305 15.0936L33.1994 9.82077C33.5878 9.22808 34.3853 9.06528 34.9757 9.45592C35.5678 9.84476 35.7321 10.6413 35.3419 11.234Z" fill="#B25719"/>
</svg>
