<svg width="54" height="48" viewBox="0 0 54 48" fill="none" xmlns="http://www.w3.org/2000/svg">
<g clip-path="url(#clip0_1_55)">
<path d="M4.52858 28.8089L4.09505 31.2834L1.88675 32.8845C1.07456 32.2767 0.12407 31.5367 0.109802 31.0511C0.0856554 30.2334 1.09431 28.9245 1.09431 28.9245C1.76712 28.5367 3.55505 28.8556 4.52858 28.8089Z" fill="#706A37"/>
<path d="M42.9576 8.49211L43.693 6.991C44.9179 7.42989 46.0637 7.55322 46.7991 7.94433C50.9512 10.1443 53.8081 16.8077 53.8838 20.7921C54.0781 31.0432 49.9842 38.3499 45.0057 43.0221C43.1157 44.7954 39.7527 47.4199 34.3297 47.7632C34.0641 47.7799 33.7249 47.8177 33.3606 47.8543L34.4768 44.9154L32.8151 42.8066C33.9093 41.3321 35.447 39.6843 36.5775 38.1332C39.3906 35.5999 41.7756 32.0866 43.344 27.1677C44.6534 23.061 45.3097 15.5232 42.523 11.5443C42.0302 10.8388 41.0369 10.1843 40.1182 9.20433L42.748 8.91989L42.9576 8.49211Z" fill="#FFF27D"/>
<path d="M53.8839 20.7922C53.808 16.8077 50.9511 10.1443 46.799 7.94433C46.0637 7.55322 44.9178 7.42989 43.6929 6.991L42.9576 8.49211L42.748 8.91989L42.7411 8.92066C45.2049 11.767 46.8643 15.8489 47.0624 18.6633C47.7817 28.8904 44.0676 36.4022 39.3356 41.33C38.2643 42.4444 36.6859 43.8889 34.4422 45.0064L33.3606 47.8544C33.7249 47.8177 34.0641 47.7799 34.3297 47.7632C39.7528 47.4199 43.1157 44.7954 45.0056 43.0222C49.9843 38.3499 54.078 31.0433 53.8839 20.7922Z" fill="#FFE33B"/>
<path d="M14.6085 39.0255L13.5373 37.0077C15.6051 36.0232 19.5574 34.5832 21.1467 34.0321C27.3029 31.8977 32.6228 24.4766 34.1001 18.1621C34.4788 16.5421 34.909 15.0543 36.472 10.4632C36.528 10.2969 36.5652 10.1247 36.5828 9.9499L38.3565 10.5332L40.117 9.20435H40.1181C41.0367 10.1843 42.03 10.8388 42.5228 11.5443C45.3095 15.5232 44.6532 23.061 43.3438 27.1677C41.7754 32.0866 39.3904 35.5999 36.5773 38.1332C33.6293 40.7877 30.2115 42.3688 26.7684 43.3666C24.2133 44.1077 18.191 44.4955 12.6274 42.2799L14.6085 39.0255Z" fill="#FFF27D"/>
<path d="M42.5229 11.5444C42.0302 10.8389 41.0368 10.1844 40.1182 9.20444H40.1171L38.9403 10.0933C40.2387 14.3277 39.2725 20.2303 37.9721 23.6443C36.1353 28.4671 33.5606 31.8403 30.6124 34.211C27.5228 36.695 24.0232 38.0808 20.5306 38.8827C19.233 39.1809 17.0727 39.3417 14.557 39.1109L12.6276 42.2804C18.1912 44.496 24.2135 44.1082 26.7685 43.3671C30.2116 42.3694 33.6295 40.7882 36.5774 38.1338C39.3905 35.6004 41.7756 32.087 43.344 27.1682C44.6533 23.061 45.3097 15.5232 42.5229 11.5444Z" fill="#F9D438"/>
<path d="M4.09513 31.2832L4.52867 28.8088C4.6314 28.8051 4.73374 28.794 4.83489 28.7754C6.62282 28.4288 10.8605 28.0466 12.8723 27.8455C17.9189 27.3421 26.0968 22.2254 29.0581 16.6943C29.8176 15.2754 30.3301 13.7821 32.9412 9.88767C33.0352 9.74611 33.1119 9.59351 33.1695 9.43323L36.3316 9.93878L36.5774 9.94767L36.5829 9.94989C36.5653 10.1247 36.5281 10.2969 36.4721 10.4632C34.9092 15.0543 34.4789 16.5421 34.1003 18.1621C32.6229 24.4766 27.3031 31.8977 21.1468 34.0321C19.5576 34.5832 15.6053 36.0232 13.5374 37.0077C13.0666 37.2321 12.1051 37.3799 11.2611 37.5921C9.00672 37.1355 5.56806 35.8277 2.66501 33.4766C2.45757 33.3088 2.18099 33.1055 1.88684 32.8843L4.09513 31.2832Z" fill="#F8EE4F"/>
<path d="M33.1696 9.43335C33.1104 9.59557 29.8178 15.2756 29.0583 16.6946C26.0969 22.2256 17.9191 27.3422 12.8724 27.8456C10.8606 28.0467 6.62301 28.4289 4.83497 28.7756C4.73386 28.7942 4.63156 28.8053 4.52886 28.8089L4.09521 31.2833C4.09521 31.2833 9.81021 32.7047 14.2384 31.604C19.1632 30.3798 27.4629 25.9839 30.4242 20.4529C31.1837 19.034 35.3193 9.77713 35.3193 9.77713L33.1696 9.43335Z" fill="#FFFAC1"/>
<path d="M32.815 42.8065L34.4767 44.9154L33.3605 47.8543C32.3551 47.9565 31.1599 48.0554 30.8273 47.7054C30.2665 47.1165 30.1436 45.4621 30.1436 45.4621C30.4125 44.6288 32.297 43.5032 32.815 42.8065Z" fill="#7F7841"/>
<path d="M40.1182 9.20435H40.1171L38.3566 10.5332L36.5829 9.94991C36.8035 7.95102 34.919 5.22547 34.919 5.22547L34.9223 3.76547C34.9223 3.76547 33.7359 1.96435 34.5305 0.502133C34.5732 0.437457 34.6307 0.384248 34.6982 0.347086C34.7657 0.309924 34.8411 0.289921 34.9179 0.288799C34.9179 0.287688 34.919 0.288799 34.919 0.288799C35.7049 0.18991 37.2766 0.895466 37.2766 0.895466C37.3468 0.972132 37.4127 1.04658 37.473 1.12102C38.4927 2.37547 38.0943 3.33991 38.1173 4.2488C38.1766 6.6388 39.1018 8.12102 40.1182 9.20435Z" fill="#706A37"/>
<path d="M34.919 5.22545C34.919 5.22545 36.8036 7.95101 36.5829 9.94989L36.5775 9.94767L36.3316 9.93878L33.1695 9.43323C33.8346 7.61656 32.5132 4.5599 32.5132 4.5599L33.1651 3.2099C33.1651 3.2099 32.5044 1.21323 33.6151 0.0498962L34.9179 0.288785C34.8411 0.289906 34.7657 0.309909 34.6982 0.347072C34.6307 0.384234 34.5732 0.437443 34.5305 0.502118C33.7359 1.96434 34.9223 3.76545 34.9223 3.76545L34.919 5.22545Z" fill="#8C8448"/>
<path d="M14.6676 39.6926H14.5957C14.4211 39.6891 14.2549 39.6155 14.1339 39.488C14.0128 39.3605 13.9468 39.1895 13.9502 39.0127C13.9537 38.8359 14.0263 38.6677 14.1523 38.5452C14.2782 38.4226 14.4471 38.3557 14.6217 38.3592C15.6863 38.343 16.7469 38.2227 17.7886 38C17.8734 37.9828 17.9608 37.9827 18.0456 37.9997C18.1305 38.0166 18.2112 38.0504 18.2831 38.0989C18.3551 38.1475 18.4169 38.2099 18.4651 38.2826C18.5132 38.3554 18.5467 38.437 18.5637 38.5228C18.5807 38.6087 18.5808 38.6971 18.564 38.783C18.5472 38.8689 18.5139 38.9506 18.466 39.0234C18.418 39.0963 18.3564 39.1589 18.2845 39.2076C18.2127 39.2563 18.132 39.2903 18.0472 39.3074C16.9351 39.5428 15.8036 39.6717 14.6676 39.6926Z" fill="#FFE33B"/>
<path d="M48.9079 14.6346C48.7833 14.6346 48.6613 14.5989 48.556 14.5316C48.4507 14.4643 48.3664 14.3681 48.3129 14.2542C46.48 10.3555 44.8146 9.39558 42.877 9.15424C42.7912 9.14353 42.7083 9.1158 42.633 9.07265C42.5578 9.02949 42.4917 8.97176 42.4385 8.90274C42.3853 8.83372 42.346 8.75477 42.3229 8.67039C42.2999 8.58601 42.2934 8.49786 42.304 8.41097C42.3146 8.32408 42.342 8.24015 42.3846 8.16397C42.4273 8.08779 42.4843 8.02086 42.5525 7.967C42.6206 7.91314 42.6986 7.8734 42.782 7.85005C42.8653 7.8267 42.9524 7.82019 43.0382 7.83091C46.5057 8.26347 48.1941 10.8985 49.5022 13.6816C49.55 13.7832 49.5716 13.8954 49.5651 14.0077C49.5585 14.1201 49.5239 14.2289 49.4646 14.3241C49.4052 14.4192 49.3231 14.4976 49.2257 14.552C49.1284 14.6063 49.0191 14.6349 48.9079 14.6349V14.6346Z" fill="#F9D438"/>
<path d="M43.6929 6.991L42.9575 8.49211L42.7479 8.91988L40.1181 9.20433C39.1018 8.121 38.1766 6.63877 38.1173 4.24877C38.0942 3.33988 38.4927 2.37544 37.473 1.12099L37.6014 1.07544C39.2928 1.69322 39.3542 2.77766 39.7955 3.59766C40.8908 5.63544 42.3396 6.50544 43.6929 6.991Z" fill="#8C8448"/>
<path d="M11.2611 37.5921C12.1051 37.3799 13.0665 37.2321 13.5374 37.0077L14.6086 39.0255L12.6275 42.2799C11.6715 41.8988 9.63886 41.2277 9.4435 40.5766C9.20203 39.7699 9.85837 38.191 9.85837 38.191C10.1208 37.9255 10.6619 37.7421 11.2611 37.5921Z" fill="#706A37"/>
</g>
<defs>
<clipPath id="clip0_1_55">
<rect width="54" height="48" fill="white"/>
</clipPath>
</defs>
</svg>
