<svg width="74" height="90" viewBox="0 0 74 90" fill="none" xmlns="http://www.w3.org/2000/svg">
<g clip-path="url(#clip0_1_237)">
<path d="M53.1184 2.59963C55.759 -0.50994 60.4715 -0.887693 63.5861 1.78365C66.635 4.39875 66.915 8.9877 64.3198 12.0438L47.253 32.1427L43.9131 29.373L50.1775 21.9957C51.0608 20.9554 50.992 19.4338 50.0433 18.4512L50.0003 18.4062C48.0749 16.3712 47.8296 13.2346 49.4184 10.9331C50.0047 10.0837 50.7615 9.43752 51.6055 8.99596C51.0728 6.82524 51.5543 4.44199 53.1184 2.59963Z" fill="#8DC637"/>
<path d="M64.3206 12.044L47.2538 32.1428L44.5464 29.8979L60.4687 11.1468C63.0635 8.09104 62.7833 3.50245 59.7351 0.886294C59.3429 0.549906 58.9163 0.254872 58.4621 0.00598133C60.2689 -0.0667921 62.1075 0.515571 63.587 1.78348C66.6352 4.39963 66.9154 8.98823 64.3206 12.044Z" fill="#82B732"/>
<path d="M72.2501 24.5605C74.7995 21.5582 74.373 17.0668 71.2803 14.5881C68.2529 12.1618 63.7899 12.668 61.2844 15.6189L42.5654 37.6634L45.7905 40.3376L54.0795 30.5759C54.9325 29.5713 56.4081 29.3811 57.5127 30.1076L57.5632 30.1405C59.8443 31.6085 62.9037 31.313 64.8519 29.4344C65.5709 28.7411 66.0659 27.9216 66.3491 27.0547C68.5272 27.1911 70.7399 26.3391 72.2501 24.5605Z" fill="#99D53B"/>
<path d="M72.2506 24.5607C70.7405 26.3389 68.5269 27.192 66.3498 27.0543C66.0657 27.9218 65.571 28.7402 64.8525 29.4339C62.9027 31.3135 59.8442 31.6086 57.5626 30.1402L57.5132 30.1076C56.4082 29.3815 54.933 29.5717 54.0789 30.5766L45.7904 40.3372L42.5652 37.6645L52.1622 26.3628C52.8604 26.1835 53.6301 26.2958 54.2734 26.7177L54.3228 26.7502C56.6044 28.2189 59.6647 27.9218 61.6127 26.0439C62.0302 25.642 62.3855 25.1814 62.667 24.677C62.994 24.0901 63.6072 23.7101 64.2817 23.6426C66.0591 23.4649 67.7716 22.6297 69.0106 21.1692C70.8138 19.0468 71.1272 16.1784 70.0624 13.8043C70.4957 14.0221 70.9042 14.285 71.2811 14.5884C74.3726 17.0675 74.7995 21.5583 72.2506 24.5607Z" fill="#8DC637"/>
<path d="M42.5654 37.6634L45.7905 40.3376L60.054 23.5399C60.8013 22.6598 60.6851 21.3478 59.7944 20.6093C58.9038 19.8708 57.576 19.9856 56.8288 20.8658L42.5654 37.6634Z" fill="#BCEA73"/>
<path d="M65.4717 19.6803C65.1857 19.6802 64.9069 19.5919 64.674 19.4279C64.4411 19.2638 64.2658 19.0321 64.1724 18.765C64.1135 18.5964 64.0888 18.418 64.0997 18.24C64.1105 18.0619 64.1568 17.8878 64.2358 17.7274C64.3148 17.567 64.425 17.4236 64.5601 17.3054C64.6952 17.1871 64.8526 17.0963 65.0232 17.0381L65.5875 16.8457C65.7581 16.7875 65.9386 16.763 66.1188 16.7738C66.2989 16.7845 66.4752 16.8302 66.6374 16.9083C66.7997 16.9864 66.9448 17.0952 67.0645 17.2287C67.1842 17.3622 67.2761 17.5177 67.335 17.6862C67.3939 17.8548 67.4186 18.0332 67.4078 18.2112C67.3969 18.3893 67.3506 18.5634 67.2716 18.7238C67.1926 18.8841 67.0825 19.0275 66.9474 19.1458C66.8123 19.2641 66.655 19.3549 66.4844 19.4131L65.9201 19.6056C65.7759 19.655 65.6243 19.6802 65.4717 19.6803Z" fill="#82B732"/>
<path d="M59.2059 18.0615C60.6039 16.3016 60.2826 13.7201 58.4207 12.3592C56.7914 11.1683 54.4738 11.3694 53.0763 12.8197L53.0487 12.8486C52.5869 13.3374 51.8606 13.4989 51.259 13.1924C48.6447 11.86 45.3554 12.439 43.3852 14.7593C41.4791 17.004 41.4119 20.167 43.0223 22.465C42.4086 24.0226 42.8277 25.8579 44.1954 26.9919L44.2056 27.0004C44.7344 27.4375 44.8045 28.222 44.3614 28.7439L39.1748 34.852L42.5655 37.6634L59.2083 18.0636L59.2059 18.0615Z" fill="#A3E440"/>
<path d="M49.923 22.1233L44.7698 28.1934C44.7093 28.264 44.6451 28.3273 44.5738 28.3836C44.6647 28.1436 44.6781 27.8817 44.6122 27.6339C44.5462 27.3861 44.4041 27.1647 44.2054 27L44.1944 26.9928C43.7934 26.6604 43.4611 26.2546 43.2158 25.7977L47.8173 20.3778C48.1692 19.9631 48.3378 19.4379 48.2902 18.8982C48.2425 18.3586 47.9842 17.8698 47.5646 17.5221C46.9836 17.0404 46.9085 16.1838 47.3959 15.6097C47.8833 15.0339 48.7502 14.9597 49.3329 15.4413C50.3132 16.2563 50.9163 17.3988 51.028 18.6611C51.1399 19.9232 50.7476 21.1526 49.923 22.1233Z" fill="#99D53B"/>
<path d="M39.175 34.852L42.5657 37.6634L52.7923 25.62C53.578 24.6948 53.4558 23.3153 52.5196 22.539C51.5834 21.7626 50.1874 21.8834 49.4018 22.8085L39.175 34.852Z" fill="#DBF2B4"/>
<path d="M0.184421 87.3849C-0.119505 84.4527 0.287703 81.4912 1.37233 78.7454C6.32571 66.1983 21.5642 30.2295 34.1769 28.2938C40.3634 27.3444 53.2325 38.015 53.3605 44.2004C53.6235 56.8997 17.1037 81.5384 4.7203 89.5235C2.87457 90.7135 0.409089 89.5514 0.184421 87.3849Z" fill="#FCA62F"/>
<path d="M4.72002 89.524C2.87464 90.714 0.408985 89.5507 0.185028 87.3846C0.105692 86.6287 0.0758067 85.8709 0.0918163 85.1154C0.289268 85.0409 0.484941 84.9445 0.672076 84.8232C13.055 76.8389 49.5742 52.1998 49.3107 39.5003C49.2826 38.1349 48.634 36.5518 47.5731 34.9212C50.845 37.9804 53.3051 41.513 53.3613 44.2009C53.6232 56.8993 17.1042 81.5384 4.72002 89.524Z" fill="#FB9927"/>
<path d="M38.3598 42.4069C38.2309 42.5592 38.0697 42.6816 37.8876 42.7655C37.7055 42.8493 37.507 42.8926 37.306 42.8922C36.983 42.8928 36.6702 42.7805 36.4228 42.5753L25.7812 33.7166C26.4373 33.0212 27.0915 32.3801 27.7476 31.8025L38.1912 40.4947C38.7722 40.9762 38.8472 41.8328 38.3598 42.4069Z" fill="#FCC16D"/>
<path d="M38.1011 50.7503C37.7781 50.7507 37.4654 50.6381 37.2183 50.4325L29.2754 43.8464C29.1371 43.7317 29.023 43.5913 28.9397 43.4331C28.8564 43.2749 28.8054 43.102 28.7897 42.9243C28.7739 42.7467 28.7938 42.5677 28.8481 42.3976C28.9023 42.2275 28.99 42.0696 29.106 41.933C29.222 41.7963 29.3641 41.6836 29.5242 41.6012C29.6843 41.5188 29.8592 41.4684 30.0391 41.4529C30.2189 41.4373 30.4 41.457 30.5722 41.5106C30.7443 41.5643 30.904 41.6509 31.0423 41.7656L38.9852 48.3518C39.1235 48.4664 39.2375 48.6069 39.3208 48.7651C39.4042 48.9233 39.4552 49.0962 39.4709 49.2738C39.4866 49.4515 39.4668 49.6305 39.4125 49.8006C39.3582 49.9707 39.2706 50.1286 39.1545 50.2652C39.0256 50.4174 38.8645 50.5397 38.6824 50.6236C38.5004 50.7074 38.3019 50.7507 38.1011 50.7503Z" fill="#FB9927"/>
<path d="M39.9321 63.3259C39.2516 63.9459 38.565 64.5592 37.8723 65.1658L26.9027 56.1097C26.7644 55.995 26.6503 55.8545 26.567 55.6962C26.4837 55.5379 26.4327 55.365 26.417 55.1872C26.4014 55.0095 26.4213 54.8304 26.4757 54.6602C26.5301 54.4901 26.6179 54.3322 26.7341 54.1956C27.2215 53.6215 28.0883 53.5474 28.6693 54.029L39.9321 63.3259Z" fill="#F98824"/>
<path d="M21.9475 68.1319C21.8186 68.2842 21.6574 68.4066 21.4753 68.4905C21.2932 68.5744 21.0947 68.6177 20.8938 68.6173C20.5707 68.6178 20.2579 68.5056 20.0106 68.3003L9.64575 59.7477C10.0471 58.9112 10.4576 58.069 10.8772 57.2252L21.7789 66.2198C22.3599 66.7014 22.4349 67.558 21.9475 68.1319Z" fill="#FB9927"/>
<path d="M17.0954 73.0916C16.7723 73.0919 16.4596 72.9793 16.2125 72.7738L11.592 68.9426C11.3168 68.7099 11.1458 68.3792 11.116 68.0225C11.0862 67.6658 11.2001 67.3119 11.4329 67.0378C11.6657 66.7636 11.9986 66.5913 12.3593 66.5583C12.7199 66.5254 13.0791 66.6344 13.3589 66.8617L17.9794 70.6929C18.1177 70.8075 18.2318 70.948 18.3151 71.1062C18.3984 71.2644 18.4494 71.4372 18.4652 71.6149C18.4809 71.7926 18.461 71.9716 18.4067 72.1417C18.3525 72.3118 18.2648 72.4696 18.1488 72.6063C18.0199 72.7585 17.8587 72.8808 17.6767 72.9647C17.4947 73.0486 17.2962 73.0919 17.0954 73.0916Z" fill="#FCB44D"/>
<path d="M28.7763 64.2011C28.4533 64.2014 28.1406 64.0888 27.8934 63.8833L27.0549 63.1879C26.9166 63.0733 26.8026 62.9328 26.7192 62.7746C26.6359 62.6164 26.5849 62.4436 26.5692 62.2659C26.5535 62.0882 26.5733 61.9092 26.6276 61.7391C26.6819 61.569 26.7695 61.4112 26.8856 61.2745C27.0016 61.1379 27.1437 61.0252 27.3038 60.9428C27.4639 60.8604 27.6388 60.81 27.8186 60.7945C27.9984 60.779 28.1796 60.7986 28.3517 60.8522C28.5238 60.9059 28.6836 60.9925 28.8218 61.1072L29.6604 61.8026C29.7986 61.9172 29.9127 62.0576 29.996 62.2159C30.0794 62.3741 30.1304 62.5469 30.1461 62.7246C30.1618 62.9023 30.142 63.0813 30.0877 63.2514C30.0334 63.4215 29.9457 63.5793 29.8297 63.716C29.7008 63.8681 29.5397 63.9905 29.3576 64.0743C29.1756 64.1582 28.9771 64.2015 28.7763 64.2011ZM42.9186 47.5464C42.5956 47.5467 42.2829 47.4341 42.0358 47.2286L41.1973 46.5332C41.059 46.4185 40.9449 46.2781 40.8616 46.1199C40.7783 45.9617 40.7273 45.7888 40.7116 45.6111C40.6958 45.4335 40.7157 45.2545 40.77 45.0844C40.8242 44.9143 40.9119 44.7564 41.0279 44.6198C41.1439 44.4831 41.286 44.3704 41.4461 44.288C41.6062 44.2057 41.7812 44.1553 41.961 44.1397C42.1408 44.1242 42.3219 44.1438 42.4941 44.1975C42.6662 44.2511 42.8259 44.3378 42.9642 44.4524L43.8027 45.1478C44.0189 45.327 44.174 45.5676 44.247 45.8369C44.32 46.1062 44.3073 46.3911 44.2108 46.6531C44.1142 46.915 43.9384 47.1413 43.7073 47.3011C43.4761 47.4609 43.2008 47.5465 42.9186 47.5464Z" fill="#F98824"/>
</g>
<defs>
<clipPath id="clip0_1_237">
<rect width="74" height="90" fill="white"/>
</clipPath>
</defs>
</svg>
