<svg width="82" height="69" viewBox="0 0 82 69" fill="none" xmlns="http://www.w3.org/2000/svg">
<g clip-path="url(#clip0_1_108)">
<path d="M72.3068 68.9929C77.66 68.9929 81.9996 64.665 81.9996 59.3263C81.9996 53.9876 77.66 49.6597 72.3068 49.6597C66.9536 49.6597 62.614 53.9876 62.614 59.3263C62.614 64.665 66.9536 68.9929 72.3068 68.9929Z" fill="#744EAA"/>
<path d="M73.4052 68.7406C68.1917 67.5304 64.9491 62.3342 66.1628 57.1348C67.0724 53.2383 70.2264 50.446 73.9443 49.8006C68.9227 48.9376 64.0372 52.1217 62.8671 57.1348C61.6536 62.3342 64.896 67.5302 70.1094 68.7406C71.3741 69.0359 72.6854 69.0738 73.9651 68.8521C73.7774 68.8204 73.5907 68.7832 73.4052 68.7406Z" fill="#67449E"/>
<path d="M27.5558 20.6082C27.7968 20.6641 28.0329 20.7304 28.2651 20.8032C28.3597 20.4044 28.4795 20.012 28.6241 19.6284C18.8888 8.59126 6.78101 4.53056 2.38642 3.46887C2.16921 3.41528 1.94289 3.40953 1.72323 3.45204C1.50357 3.49454 1.29583 3.58427 1.11447 3.71499C0.933116 3.8457 0.782499 4.01425 0.673101 4.20892C0.563703 4.40358 0.498153 4.61969 0.481013 4.84219L0.004221 10.7682C-0.0609635 11.5786 0.638288 12.2584 1.44677 12.165C11.5308 10.9998 20.879 16.1217 26.7749 20.463C27.035 20.5013 27.2952 20.5477 27.5558 20.6082Z" fill="#93603E"/>
<path d="M23.8235 14.8626C17.9899 11.1261 9.98241 7.60801 1.44693 8.59415C0.945152 8.65213 0.485818 8.4119 0.224759 8.02792L0.004221 10.7682C-0.0609635 11.5786 0.638288 12.2584 1.44677 12.165C11.5308 10.9998 20.879 16.1217 26.7749 20.463C27.037 20.5009 27.2975 20.5493 27.5556 20.6082C27.7968 20.6641 28.0328 20.7304 28.265 20.8031C28.3595 20.4043 28.4794 20.0119 28.6239 19.6283C27.1304 17.9363 25.5268 16.3443 23.8235 14.8626Z" fill="#7F573C"/>
<path d="M13.3038 38.9958C14.5378 37.4959 16.1969 36.4023 18.0642 35.858C18.3657 36.2116 14.784 32.6804 16.0052 27.448C16.8634 23.7714 19.7353 21.0869 23.1869 20.2803C18.6406 18.7833 12.1413 18.3845 5.3366 22.4947C4.74593 22.8516 4.62453 23.657 5.093 24.1631C6.0469 25.1938 7.77934 26.852 10.1136 28.2105C10.7255 28.5665 10.8084 29.4041 10.2796 29.874C8.3503 31.5885 6.56165 33.8554 5.11174 36.847C4.81128 37.4669 5.14985 38.2091 5.81884 38.3791C7.30431 38.7562 10.3017 39.2555 13.3038 38.9958Z" fill="#3BBC56"/>
<path d="M9.31622 38.3789C8.64723 38.2091 8.30866 37.4667 8.60912 36.8468C10.059 33.8552 11.8477 31.5883 13.777 29.874C14.3058 29.4041 14.2228 28.5665 13.611 28.2105C11.2767 26.852 9.54428 25.1937 8.59038 24.163C8.12191 23.657 8.24331 22.8515 8.83398 22.4947C12.1613 20.4849 15.4149 19.5551 18.4036 19.3028C14.5492 18.9744 10.0151 19.6688 5.3366 22.4947C4.74593 22.8515 4.62453 23.657 5.093 24.163C6.0469 25.1937 7.77934 26.852 10.1136 28.2105C10.7255 28.5667 10.8084 29.4041 10.2796 29.874C8.3503 31.5885 6.56165 33.8553 5.11174 36.8468C4.81128 37.4667 5.14985 38.209 5.81884 38.3789C7.30094 38.7554 10.2881 39.2529 13.2837 38.997C11.6358 38.8728 10.2048 38.6046 9.31622 38.3789Z" fill="#30AA44"/>
<path d="M39.812 13.6469C40.3601 13.774 40.8851 13.9473 41.3862 14.1587C42.6198 12.2507 44.4933 10.8528 46.6377 10.1908C47.1864 6.3738 46.0031 2.53368 45.4355 0.758973C45.2257 0.102981 44.4627 -0.189955 43.86 0.145947C40.9517 1.767 38.7889 3.68211 37.1874 5.70455C36.7484 6.25895 35.9051 6.22605 35.5124 5.63826C34.014 3.39508 32.2514 1.76876 31.1632 0.880204C30.6287 0.443994 29.8298 0.612505 29.5078 1.2217C25.7415 8.34625 26.7526 14.8718 28.5774 19.3242C30.3416 15.0563 35.1572 12.5663 39.812 13.6469Z" fill="#3BBC56"/>
<path d="M32.4396 2.00931C32.0287 1.61683 31.6029 1.24019 31.1632 0.880211C30.6289 0.444001 29.8298 0.612511 29.5078 1.2217C25.7415 8.34609 26.7526 14.8718 28.5774 19.3242C29.0974 18.0659 29.8845 16.9638 30.8528 16.0605C29.9147 12.1341 29.9082 7.25102 32.4396 2.00931Z" fill="#30AA44"/>
<path d="M49.2536 28.8347C54.6068 28.8347 58.9464 24.5068 58.9464 19.1681C58.9464 13.8294 54.6068 9.50153 49.2536 9.50153C43.9004 9.50153 39.5608 13.8294 39.5608 19.1681C39.5608 24.5068 43.9004 28.8347 49.2536 28.8347Z" fill="#744EAA"/>
<path d="M50.3517 28.5828C45.1382 27.3726 41.8957 22.1764 43.1093 16.977C44.0189 13.0805 47.1729 10.2882 50.8908 9.64272C45.8692 8.77973 40.9837 11.9639 39.8136 16.977C38.6001 22.1764 41.8425 27.3724 47.056 28.5828C48.3206 28.8781 49.632 28.916 50.9116 28.6943C50.724 28.6625 50.5372 28.6253 50.3517 28.5828Z" fill="#67449E"/>
<path d="M38.5998 60.2239C43.953 60.2239 48.2926 55.8961 48.2926 50.5574C48.2926 45.2187 43.953 40.8908 38.5998 40.8908C33.2466 40.8908 28.907 45.2187 28.907 50.5574C28.907 55.8961 33.2466 60.2239 38.5998 60.2239Z" fill="#744EAA"/>
<path d="M39.6991 59.9717C34.4857 58.7615 31.2431 53.5653 32.4568 48.3661C33.3663 44.4696 36.5203 41.6772 40.2382 41.0318C35.2166 40.1688 30.3311 43.3529 29.161 48.3661C27.9475 53.5654 31.1899 58.7615 36.4034 59.9717C37.668 60.267 38.9794 60.3049 40.259 60.0832C40.0714 60.0514 39.8847 60.0142 39.6991 59.9717Z" fill="#67449E"/>
<path d="M20.3947 54.6655C25.7479 54.6655 30.0875 50.3376 30.0875 44.9989C30.0875 39.6602 25.7479 35.3323 20.3947 35.3323C15.0415 35.3323 10.7019 39.6602 10.7019 44.9989C10.7019 50.3376 15.0415 54.6655 20.3947 54.6655Z" fill="#744EAA"/>
<path d="M21.4936 54.4128C16.2801 53.2025 13.0375 48.0064 14.2512 42.807C15.1607 38.9105 18.3147 36.1182 22.0327 35.4727C17.011 34.6097 12.1256 37.7938 10.9555 42.807C9.74193 48.0064 12.9843 53.2024 18.1978 54.4128C19.4625 54.7081 20.7738 54.746 22.0535 54.5243C21.8658 54.4925 21.6791 54.4553 21.4936 54.4128Z" fill="#67449E"/>
<path d="M37.3571 32.256C42.7103 32.256 47.0499 27.9281 47.0499 22.5894C47.0499 17.2507 42.7103 12.9229 37.3571 12.9229C32.0039 12.9229 27.6643 17.2507 27.6643 22.5894C27.6643 27.9281 32.0039 32.256 37.3571 32.256Z" fill="#553788"/>
<path d="M38.4593 32.004C33.2458 30.7937 30.0033 25.5975 31.2169 20.3982C32.1263 16.5023 35.2795 13.7103 38.9965 13.0642C33.9741 12.1998 29.0872 15.3842 27.9169 20.3982C26.7034 25.5975 29.9458 30.7936 35.1592 32.004C36.4245 32.2994 37.7366 32.3372 39.0168 32.115C38.831 32.083 38.6453 32.0471 38.4593 32.004Z" fill="#462E7A"/>
<path d="M51.1675 41.6079C56.4799 41.6079 60.7866 37.313 60.7866 32.0148C60.7866 26.7167 56.4799 22.4217 51.1675 22.4217C45.855 22.4217 41.5483 26.7167 41.5483 32.0148C41.5483 37.313 45.855 41.6079 51.1675 41.6079Z" fill="#9266CC"/>
<path d="M52.2863 41.358C47.1117 40.1567 43.8935 34.9995 45.0979 29.8389C45.9996 25.9759 49.1241 23.2066 52.8087 22.5618C47.819 21.6954 42.9606 24.8577 41.7978 29.8389C40.5933 34.9995 43.8116 40.1567 48.9862 41.358C50.2457 41.6519 51.5518 41.6887 52.8258 41.4661C52.645 41.4352 52.4651 41.3991 52.2863 41.358Z" fill="#7B54BA"/>
<path d="M66.0173 54.9642C71.3298 54.9642 75.6364 50.6692 75.6364 45.3711C75.6364 40.0729 71.3298 35.778 66.0173 35.778C60.7048 35.778 56.3982 40.0729 56.3982 45.3711C56.3982 50.6692 60.7048 54.9642 66.0173 54.9642Z" fill="#9266CC"/>
<path d="M67.1361 54.7145C61.9616 53.5132 58.7433 48.356 59.9477 43.1955C60.8494 39.3325 63.974 36.5632 67.6586 35.9184C62.6688 35.052 57.8104 38.2143 56.6477 43.1955C55.4431 48.356 58.6615 53.5132 63.8361 54.7145C65.0955 55.0085 66.4016 55.0453 67.6757 54.8227C67.4948 54.7917 67.3149 54.7557 67.1361 54.7145Z" fill="#7B54BA"/>
<path d="M56.6963 67.6576C62.0088 67.6576 66.3154 63.3626 66.3154 58.0644C66.3154 52.7663 62.0088 48.4713 56.6963 48.4713C51.3838 48.4713 47.0771 52.7663 47.0771 58.0644C47.0771 63.3626 51.3838 67.6576 56.6963 67.6576Z" fill="#9266CC"/>
<path d="M57.8153 67.4081C52.6408 66.2068 49.4225 61.0496 50.6269 55.889C51.5286 52.026 54.6532 49.2567 58.3378 48.6119C53.348 47.7456 48.4896 50.9078 47.3269 55.889C46.1223 61.0496 49.3407 66.2068 54.5153 67.4081C55.7747 67.702 57.0808 67.7388 58.3549 67.5162C58.1741 67.4851 57.9941 67.4491 57.8153 67.4081Z" fill="#7B54BA"/>
<path d="M25.0439 39.2168C30.3564 39.2168 34.663 34.9219 34.663 29.6237C34.663 24.3256 30.3564 20.0306 25.0439 20.0306C19.7314 20.0306 15.4248 24.3256 15.4248 29.6237C15.4248 34.9219 19.7314 39.2168 25.0439 39.2168Z" fill="#9266CC"/>
<path d="M26.1625 38.9669C20.9879 37.7656 17.7697 32.6084 18.9741 27.4478C19.8758 23.5848 23.0003 20.8155 26.6849 20.1707C21.6952 19.3044 16.8368 22.4666 15.674 27.4478C14.4695 32.6084 17.6879 37.7656 22.8624 38.9669C24.1219 39.2608 25.428 39.2976 26.7021 39.075C26.5212 39.0441 26.3413 39.0081 26.1625 38.9669Z" fill="#7B54BA"/>
<path d="M36.6731 48.6614C41.9856 48.6614 46.2922 44.3664 46.2922 39.0683C46.2922 33.7702 41.9856 29.4752 36.6731 29.4752C31.3606 29.4752 27.054 33.7702 27.054 39.0683C27.054 44.3664 31.3606 48.6614 36.6731 48.6614Z" fill="#AA8DD8"/>
<path d="M37.7516 48.4116C32.577 47.2103 29.3587 42.0531 30.5632 36.8925C31.4649 33.0296 34.5893 30.2603 38.2739 29.6154C33.2841 28.7491 28.4257 31.9113 27.2631 36.8925C26.0586 42.0531 29.277 47.2103 34.4515 48.4116C35.711 48.7056 37.017 48.7423 38.291 48.5197C38.1102 48.4888 37.9303 48.4528 37.7516 48.4116Z" fill="#987FC9"/>
<path d="M51.688 54.9642C57.0005 54.9642 61.3071 50.6692 61.3071 45.3711C61.3071 40.0729 57.0005 35.778 51.688 35.778C46.3755 35.778 42.0688 40.0729 42.0688 45.3711C42.0688 50.6692 46.3755 54.9642 51.688 54.9642Z" fill="#AA8DD8"/>
<path d="M52.7653 54.7145C47.5907 53.5132 44.3723 48.356 45.5769 43.1955C46.4786 39.3325 49.603 36.5632 53.2876 35.9184C48.2978 35.052 43.4394 38.2143 42.2768 43.1955C41.0723 48.356 44.2907 53.5132 49.4652 54.7145C50.7246 55.0085 52.0307 55.0453 53.3047 54.8227C53.1239 54.7917 52.944 54.7557 52.7653 54.7145Z" fill="#987FC9"/>
</g>
<defs>
<clipPath id="clip0_1_108">
<rect width="82" height="69" fill="white"/>
</clipPath>
</defs>
</svg>
